<svg xmlns="http://www.w3.org/2000/svg" width="28.498" height="28.493" viewBox="0 0 28.498 28.493">
  <path id="Union_6" data-name="Union 6" d="M-15632.343-2153.683a4.712,4.712,0,0,1-1.514-4.422c.02-.151.033-.291-.144-.377-.824-.4-.961-1.078-.779-1.992.008-.039.02-.076.043-.173-.255.018-.486.023-.714.049a1.318,1.318,0,0,1-1.442-.76.462.462,0,0,0-.58-.3,4.787,4.787,0,0,1-4.459-1.611,4.482,4.482,0,0,1-1.053-3.441,5.13,5.13,0,0,1,.217-1.131,4.618,4.618,0,0,1,4.255-3.084c.406.018.812.053,1.218.057a.426.426,0,0,0,.319-.132,1.567,1.567,0,0,1,2.046-.763.276.276,0,0,0,.09.006.306.306,0,0,0,.057-.012c-.02-.344-.045-.665-.057-.989a1.192,1.192,0,0,1,.719-1.113c.307-.163.3-.371.259-.63a5,5,0,0,1,.063-1.975,4.11,4.11,0,0,1,1.2-2.13,4.613,4.613,0,0,1,2.174-1.313,2.6,2.6,0,0,1,.468-.073,4.975,4.975,0,0,1,3.063.571,4.608,4.608,0,0,1,2.24,3.3,8.9,8.9,0,0,1-.012,1.661c-.018.261-.035.458.251.571a1.376,1.376,0,0,1,.306.229,1.032,1.032,0,0,1,.43,1.025.878.878,0,0,1-.047.529c-.006.106-.012.215-.02.326.246-.024.455-.043.668-.067a1.323,1.323,0,0,1,1.435.72.465.465,0,0,0,.5.263,11.957,11.957,0,0,1,2.157.067,4.672,4.672,0,0,1,3.491,4.374,4.678,4.678,0,0,1-2.506,4.3,3.9,3.9,0,0,1-2.11.5c-.375-.01-.75-.057-1.123-.067a.381.381,0,0,0-.265.125,2.209,2.209,0,0,0-.218.352,1.254,1.254,0,0,1-1.317.608c-.224-.027-.447-.049-.689-.074,0,.322-.025.64.006.95a1.064,1.064,0,0,1-.623,1.115.556.556,0,0,0-.293.575,8.3,8.3,0,0,1-.128,2.116,4.414,4.414,0,0,1-3.788,3.354,5.368,5.368,0,0,1-.788.06A4.316,4.316,0,0,1-15632.343-2153.683Z" transform="translate(15643.5 2180.496)" fill="#fff" stroke="rgba(0,0,0,0)" stroke-miterlimit="10" stroke-width="1"/>
</svg>
